# xmcd
# Copyright (C) 1995-1998 Ti Kan
#
# Track frame offsets:
#       150
#       18715
#       32962
#       79357
#       103070
#       114480
#       127970
#       140810
#       155891
#       179587
#       211386
#       228174
#       263221
#       285528
#       301597
#
# Disc length: 4279 seconds
#
# Revision: 0
# Processed by: cddbd v1.5.2PL0 Copyright (c) Steve Scherf et al.
# Submitted via: CD-Transfer v1.0
#
DISCID=da10b50f
DTITLE=Stooges, The - I. Pop, D. Alexander, R. Asheton, S. Asheton
DYEAR=69
DGENRE=
TTITLE0=1969
TTITLE1=I Wanna Be Your Dog
TTITLE2=Wi Will Fall
TTITLE3=No Fun
TTITLE4=Real Cool Time
TTITLE5=Ann
TTITLE6=Not Right
TTITLE7=Little Doll
TTITLE8=1070
TTITLE9=Dirt
TTITLE10=Down On The Street
TTITLE11=Fun House
TTITLE12=L.a. Blues
TTITLE13=Loosie
TTITLE14=Tv Eye
EXTD=
EXTT0=
EXTT1=
EXTT2=
EXTT3=
EXTT4=
EXTT5=
EXTT6=
EXTT7=
EXTT8=
EXTT9=
EXTT10=
EXTT11=
EXTT12=
EXTT13=
EXTT14=
PLAYORDER=
